<?xml version="1.0"?>
<svg width="36" height="29" xmlns="http://www.w3.org/2000/svg" xmlns:svg="http://www.w3.org/2000/svg">
 <g class="layer">
  <title>Layer 1</title>
  <path d="m28.29,10.57c0,-5.68 -6.33,-10.28 -14.15,-10.28c-7.81,0 -14.14,4.6 -14.14,10.28c0,3.26 2.09,6.17 5.34,8.06c-0.68,1.66 -1.56,2.45 -2.35,3.33c-0.22,0.26 -0.48,0.5 -0.4,0.89c0.06,0.34 0.34,0.58 0.64,0.58c0.02,0 0.04,0 0.06,0c0.61,-0.08 1.19,-0.18 1.73,-0.32c2.03,-0.53 3.92,-1.39 5.59,-2.57c1.12,0.2 2.31,0.32 3.53,0.32c7.82,0 14.15,-4.6 14.15,-10.29zm7.71,5.14c0,-3.35 -2.21,-6.32 -5.6,-8.19c0.3,0.98 0.46,2.01 0.46,3.05c0,3.6 -1.85,6.91 -5.21,9.36c-3.11,2.25 -7.19,3.5 -11.51,3.5c-0.58,0 -1.18,-0.04 -1.76,-0.08c2.51,1.65 5.84,2.65 9.48,2.65c1.22,0 2.41,-0.12 3.53,-0.32c1.67,1.18 3.56,2.05 5.59,2.57c0.54,0.14 1.12,0.24 1.73,0.32c0.32,0.04 0.62,-0.22 0.7,-0.58c0.08,-0.38 -0.18,-0.62 -0.4,-0.89c-0.79,-0.88 -1.67,-1.66 -2.35,-3.33c3.25,-1.89 5.34,-4.78 5.34,-8.06z" fill="#1db1e7" id="svg_1"/>
 </g>
</svg>